<svg xmlns="http://www.w3.org/2000/svg" width="1452" height="786" style="cursor:move"><g transform="translate(0,0) scale(1)"><path d="M512.6666666666666,363, 692.6666666666666,163" class="link" style="stroke-width:.5;stroke-opacity:1;stroke:#505050;fill:none"/><path d="M512.6666666666666,363, 692.6666666666666,203" class="link" style="stroke-width:.5;stroke-opacity:1;stroke:#505050;fill:none"/><path d="M512.6666666666666,363, 692.6666666666666,243" class="link" style="stroke-width:.5;stroke-opacity:1;stroke:#505050;fill:none"/><path d="M512.6666666666666,363, 692.6666666666666,283" class="link" style="stroke-width:.5;stroke-opacity:1;stroke:#505050;fill:none"/><path d="M512.6666666666666,363, 692.6666666666666,323" class="link" style="stroke-width:.5;stroke-opacity:1;stroke:#505050;fill:none"/><path d="M512.6666666666666,363, 692.6666666666666,363" class="link" style="stroke-width:.5;stroke-opacity:1;stroke:#505050;fill:none"/><path d="M512.6666666666666,363, 692.6666666666666,403" class="link" style="stroke-width:.5;stroke-opacity:1;stroke:#505050;fill:none"/><path d="M512.6666666666666,363, 692.6666666666666,443" class="link" style="stroke-width:.5;stroke-opacity:1;stroke:#505050;fill:none"/><path d="M512.6666666666666,363, 692.6666666666666,483" class="link" style="stroke-width:.5;stroke-opacity:1;stroke:#505050;fill:none"/><path d="M512.6666666666666,363, 692.6666666666666,523" class="link" style="stroke-width:.5;stroke-opacity:1;stroke:#505050;fill:none"/><path d="M512.6666666666666,363, 692.6666666666666,563" class="link" style="stroke-width:.5;stroke-opacity:1;stroke:#505050;fill:none"/><path d="M512.6666666666666,363, 692.6666666666666,603" class="link" style="stroke-width:.5;stroke-opacity:1;stroke:#505050;fill:none"/><path d="M512.6666666666666,403, 692.6666666666666,163" class="link" style="stroke-width:.5;stroke-opacity:1;stroke:#505050;fill:none"/><path d="M512.6666666666666,403, 692.6666666666666,203" class="link" style="stroke-width:.5;stroke-opacity:1;stroke:#505050;fill:none"/><path d="M512.6666666666666,403, 692.6666666666666,243" class="link" style="stroke-width:.5;stroke-opacity:1;stroke:#505050;fill:none"/><path d="M512.6666666666666,403, 692.6666666666666,283" class="link" style="stroke-width:.5;stroke-opacity:1;stroke:#505050;fill:none"/><path d="M512.6666666666666,403, 692.6666666666666,323" class="link" style="stroke-width:.5;stroke-opacity:1;stroke:#505050;fill:none"/><path d="M512.6666666666666,403, 692.6666666666666,363" class="link" style="stroke-width:.5;stroke-opacity:1;stroke:#505050;fill:none"/><path d="M512.6666666666666,403, 692.6666666666666,403" class="link" style="stroke-width:.5;stroke-opacity:1;stroke:#505050;fill:none"/><path d="M512.6666666666666,403, 692.6666666666666,443" class="link" style="stroke-width:.5;stroke-opacity:1;stroke:#505050;fill:none"/><path d="M512.6666666666666,403, 692.6666666666666,483" class="link" style="stroke-width:.5;stroke-opacity:1;stroke:#505050;fill:none"/><path d="M512.6666666666666,403, 692.6666666666666,523" class="link" style="stroke-width:.5;stroke-opacity:1;stroke:#505050;fill:none"/><path d="M512.6666666666666,403, 692.6666666666666,563" class="link" style="stroke-width:.5;stroke-opacity:1;stroke:#505050;fill:none"/><path d="M512.6666666666666,403, 692.6666666666666,603" class="link" style="stroke-width:.5;stroke-opacity:1;stroke:#505050;fill:none"/><path d="M692.6666666666666,163, 872.6666666666666,363" class="link" style="stroke-width:.5;stroke-opacity:1;stroke:#505050;fill:none"/><path d="M692.6666666666666,163, 872.6666666666666,403" class="link" style="stroke-width:.5;stroke-opacity:1;stroke:#505050;fill:none"/><path d="M692.6666666666666,203, 872.6666666666666,363" class="link" style="stroke-width:.5;stroke-opacity:1;stroke:#505050;fill:none"/><path d="M692.6666666666666,203, 872.6666666666666,403" class="link" style="stroke-width:.5;stroke-opacity:1;stroke:#505050;fill:none"/><path d="M692.6666666666666,243, 872.6666666666666,363" class="link" style="stroke-width:.5;stroke-opacity:1;stroke:#505050;fill:none"/><path d="M692.6666666666666,243, 872.6666666666666,403" class="link" style="stroke-width:.5;stroke-opacity:1;stroke:#505050;fill:none"/><path d="M692.6666666666666,283, 872.6666666666666,363" class="link" style="stroke-width:.5;stroke-opacity:1;stroke:#505050;fill:none"/><path d="M692.6666666666666,283, 872.6666666666666,403" class="link" style="stroke-width:.5;stroke-opacity:1;stroke:#505050;fill:none"/><path d="M692.6666666666666,323, 872.6666666666666,363" class="link" style="stroke-width:.5;stroke-opacity:1;stroke:#505050;fill:none"/><path d="M692.6666666666666,323, 872.6666666666666,403" class="link" style="stroke-width:.5;stroke-opacity:1;stroke:#505050;fill:none"/><path d="M692.6666666666666,363, 872.6666666666666,363" class="link" style="stroke-width:.5;stroke-opacity:1;stroke:#505050;fill:none"/><path d="M692.6666666666666,363, 872.6666666666666,403" class="link" style="stroke-width:.5;stroke-opacity:1;stroke:#505050;fill:none"/><path d="M692.6666666666666,403, 872.6666666666666,363" class="link" style="stroke-width:.5;stroke-opacity:1;stroke:#505050;fill:none"/><path d="M692.6666666666666,403, 872.6666666666666,403" class="link" style="stroke-width:.5;stroke-opacity:1;stroke:#505050;fill:none"/><path d="M692.6666666666666,443, 872.6666666666666,363" class="link" style="stroke-width:.5;stroke-opacity:1;stroke:#505050;fill:none"/><path d="M692.6666666666666,443, 872.6666666666666,403" class="link" style="stroke-width:.5;stroke-opacity:1;stroke:#505050;fill:none"/><path d="M692.6666666666666,483, 872.6666666666666,363" class="link" style="stroke-width:.5;stroke-opacity:1;stroke:#505050;fill:none"/><path d="M692.6666666666666,483, 872.6666666666666,403" class="link" style="stroke-width:.5;stroke-opacity:1;stroke:#505050;fill:none"/><path d="M692.6666666666666,523, 872.6666666666666,363" class="link" style="stroke-width:.5;stroke-opacity:1;stroke:#505050;fill:none"/><path d="M692.6666666666666,523, 872.6666666666666,403" class="link" style="stroke-width:.5;stroke-opacity:1;stroke:#505050;fill:none"/><path d="M692.6666666666666,563, 872.6666666666666,363" class="link" style="stroke-width:.5;stroke-opacity:1;stroke:#505050;fill:none"/><path d="M692.6666666666666,563, 872.6666666666666,403" class="link" style="stroke-width:.5;stroke-opacity:1;stroke:#505050;fill:none"/><path d="M692.6666666666666,603, 872.6666666666666,363" class="link" style="stroke-width:.5;stroke-opacity:1;stroke:#505050;fill:none"/><path d="M692.6666666666666,603, 872.6666666666666,403" class="link" style="stroke-width:.5;stroke-opacity:1;stroke:#505050;fill:none"/><path d="M872.6666666666666,363, 1052.6666666666667,383" class="link" style="stroke-width:.5;stroke-opacity:1;stroke:#505050;fill:none"/><path d="M872.6666666666666,403, 1052.6666666666667,383" class="link" style="stroke-width:.5;stroke-opacity:1;stroke:#505050;fill:none"/><circle id="0_0" cx="512.667" cy="363" r="10" class="node" style="fill:#fff;stroke:#333"/><circle id="0_1" cx="512.667" cy="403" r="10" class="node" style="fill:#fff;stroke:#333"/><circle id="1_0" cx="692.667" cy="163" r="10" class="node" style="fill:#fff;stroke:#333"/><circle id="1_1" cx="692.667" cy="203" r="10" class="node" style="fill:#fff;stroke:#333"/><circle id="1_2" cx="692.667" cy="243" r="10" class="node" style="fill:#fff;stroke:#333"/><circle id="1_3" cx="692.667" cy="283" r="10" class="node" style="fill:#fff;stroke:#333"/><circle id="1_4" cx="692.667" cy="323" r="10" class="node" style="fill:#fff;stroke:#333"/><circle id="1_5" cx="692.667" cy="363" r="10" class="node" style="fill:#fff;stroke:#333"/><circle id="1_6" cx="692.667" cy="403" r="10" class="node" style="fill:#fff;stroke:#333"/><circle id="1_7" cx="692.667" cy="443" r="10" class="node" style="fill:#fff;stroke:#333"/><circle id="1_8" cx="692.667" cy="483" r="10" class="node" style="fill:#fff;stroke:#333"/><circle id="1_9" cx="692.667" cy="523" r="10" class="node" style="fill:#fff;stroke:#333"/><circle id="1_10" cx="692.667" cy="563" r="10" class="node" style="fill:#fff;stroke:#333"/><circle id="1_11" cx="692.667" cy="603" r="10" class="node" style="fill:#fff;stroke:#333"/><circle id="2_0" cx="872.667" cy="363" r="10" class="node" style="fill:#fff;stroke:#333"/><circle id="2_1" cx="872.667" cy="403" r="10" class="node" style="fill:#fff;stroke:#333"/><circle id="3_0" cx="1052.667" cy="383" r="10" class="node" style="fill:#fff;stroke:#333"/><text x="477.667" y="643" class="text" dy=".35em" style="font-size:12px">Input Layer ∈ ℝ²</text><text x="657.667" y="643" class="text" dy=".35em" style="font-size:12px">Hidden Layer ∈ ℝ¹²</text><text x="837.667" y="643" class="text" dy=".35em" style="font-size:12px">Hidden Layer ∈ ℝ²</text><text x="1017.667" y="643" class="text" dy=".35em" style="font-size:12px">Output Layer ∈ ℝ¹</text></g><defs><marker id="arrow" markerHeight="7" markerWidth="7" orient="auto" refX="40" viewBox="0 -5 10 10"><path d="M0,-5L10,0L0,5" style="stroke:#505050;fill:none"/></marker></defs></svg>